<?xml version="1.0" standalone="no"?>
<!DOCTYPE svg PUBLIC "-//W3C//DTD SVG 20010904//EN"
 "http://www.w3.org/TR/2001/REC-SVG-20010904/DTD/svg10.dtd">
<svg version="1.0" xmlns="http://www.w3.org/2000/svg"
 width="16.000000pt" height="16.000000pt" viewBox="0 0 16.000000 16.000000"
 preserveAspectRatio="xMidYMid meet">
<metadata>
Created by potrace 1.16, written by Peter Selinger 2001-2019
</metadata>
<g transform="translate(0.000000,16.000000) scale(0.100000,-0.100000)"
fill="#000000" stroke="none">
<path d="M0 150 c0 -5 25 -10 55 -10 30 0 55 -4 55 -10 0 -5 11 -10 25 -10 18
0 25 5 25 20 0 18 -7 20 -80 20 -47 0 -80 -4 -80 -10z"/>
<path d="M0 63 l0 -63 80 0 80 0 0 55 0 55 -25 -12 c-29 -13 -31 -21 -10 -38
27 -22 16 -30 -40 -28 -58 2 -65 7 -40 28 21 17 19 30 -5 30 -10 0 -24 8 -29
18 -8 13 -10 2 -11 -45z"/>
</g>
</svg>
