<svg version="1.1" xmlns="http://www.w3.org/2000/svg" viewBox="0 0 52.74493996009505 74.59363791738224" width="158.23481988028516" height="223.78091375214672">
  <!-- svg-source:excalidraw -->
  
  <defs>
    <style class="style-fonts">
      
    </style>
    
  </defs>
  <g stroke-linecap="round" transform="translate(10.504680529052848 11.327920564167016) rotate(0 15.866383892447061 26.63285867660761)"><path d="M7.93 0 C11.08 -2.64, 16.13 0.58, 23.8 0 C31.89 0.82, 33.15 2.28, 31.73 7.93 C31.9 17.56, 28.65 28.24, 31.73 45.33 C29.62 53.68, 27.39 50.69, 23.8 53.27 C15.9 55.99, 13.07 51.57, 7.93 53.27 C0.18 55.19, -2.62 47.88, 0 45.33 C-3.6 30.86, -0.02 22.61, 0 7.93 C2.63 0.85, 5.88 0.97, 7.93 0" stroke="none" stroke-width="0" fill="#ffffff"></path><path d="M7.93 0 C12.67 -0.97, 19.74 1.35, 23.8 0 M7.93 0 C12.48 0.43, 17.51 0.48, 23.8 0 M23.8 0 C29.05 -1.39, 30.18 1.16, 31.73 7.93 M23.8 0 C27.45 -2.07, 31.1 2.5, 31.73 7.93 M31.73 7.93 C30.95 16.98, 30.29 26.06, 31.73 45.33 M31.73 7.93 C31.21 15.45, 31.98 24.29, 31.73 45.33 M31.73 45.33 C30.09 48.88, 27.94 54.27, 23.8 53.27 M31.73 45.33 C33.28 50, 26.91 51.25, 23.8 53.27 M23.8 53.27 C19.67 53.93, 15.08 54.7, 7.93 53.27 M23.8 53.27 C17.79 53.74, 11.42 52.61, 7.93 53.27 M7.93 53.27 C4.55 51.99, -1.93 51.53, 0 45.33 M7.93 53.27 C3.4 51.57, 1.52 51.1, 0 45.33 M0 45.33 C-1 36.53, -1.49 23.13, 0 7.93 M0 45.33 C0.26 35.46, -1.29 24, 0 7.93 M0 7.93 C-0.79 3.96, 3.73 1.79, 7.93 0 M0 7.93 C-1.63 3.21, 3.84 0.27, 7.93 0" stroke="#1e1e1e" stroke-width="2" fill="none"></path></g><g stroke-linecap="round"><g transform="translate(10.504680529052848 21.90550982579839) rotate(0 6.233222243461341 -5.099909108286539)" fill-rule="evenodd"><path d="M-1.27 -1.22 C0.61 -2.97, 10.85 -10.16, 11.3 -11.67 C11.75 -13.19, 3.51 -11.99, 1.44 -10.3 C-0.63 -8.62, -0.93 -3.22, -1.1 -1.56" stroke="none" stroke-width="0" fill="#ffec99" fill-rule="evenodd"></path><path d="M-0.3 0.42 C1.8 -1.22, 12.63 -8.24, 12.97 -10.07 C13.32 -11.9, 4 -12.27, 1.77 -10.55 C-0.46 -8.83, -0.03 -1.57, -0.41 0.23 M0.55 0.17 C2.59 -1.64, 12.67 -9.25, 12.8 -10.97 C12.94 -12.69, 3.59 -11.82, 1.37 -10.13 C-0.85 -8.44, -0.32 -2.6, -0.5 -0.82" stroke="#1e1e1e" stroke-width="2" fill="none"></path></g></g><mask></mask><g stroke-linecap="round"><g transform="translate(42.23744831394674 23.03882296097322) rotate(0 -6.044336720932222 -5.666565675873954)" fill-rule="evenodd"><path d="M-1.17 -1.47 C-3.04 -3.11, -12.36 -9.16, -12.54 -11.06 C-12.72 -12.96, -4.4 -14.68, -2.24 -12.89 C-0.08 -11.11, 0 -2.35, 0.42 -0.35" stroke="none" stroke-width="0" fill="#ffec99" fill-rule="evenodd"></path><path d="M0.51 0.13 C-1.48 -1.83, -11.86 -9.43, -12.2 -11.31 C-12.54 -13.18, -3.5 -13.03, -1.54 -11.11 C0.41 -9.18, -0.73 -1.53, -0.48 0.26 M0.1 -0.28 C-1.94 -2.21, -12.6 -8.83, -12.69 -10.79 C-12.78 -12.75, -2.45 -13.72, -0.43 -12.05 C1.58 -10.39, -0.57 -2.71, -0.61 -0.77" stroke="#1e1e1e" stroke-width="2" fill="none"></path></g></g><mask></mask><g stroke-linecap="round" transform="translate(10.504680529052848 31.349785952254933) rotate(0 16.05526941497618 10.010932694043959)"><path d="M5.01 0 C12.4 -1.44, 23.17 -1.68, 27.11 0 M5.01 0 C11.9 -0.59, 19.64 -0.75, 27.11 0 M27.11 0 C29.89 -0.13, 30.76 -0.24, 32.11 5.01 M27.11 0 C31.03 -0.49, 32.51 0.41, 32.11 5.01 M32.11 5.01 C31.72 7.9, 31.47 12.04, 32.11 15.02 M32.11 5.01 C31.74 8.48, 32.37 11.31, 32.11 15.02 M32.11 15.02 C30.21 16.6, 29.06 19.7, 27.11 20.02 M32.11 15.02 C34.28 17.67, 31.18 18, 27.11 20.02 M27.11 20.02 C19.26 20.78, 11.37 20.43, 5.01 20.02 M27.11 20.02 C21.46 20.34, 18.08 19.14, 5.01 20.02 M5.01 20.02 C2.99 20.44, -0.27 16.7, 0 15.02 M5.01 20.02 C1.44 18.52, 2.21 16.29, 0 15.02 M0 15.02 C0.12 13.01, 0.96 8.84, 0 5.01 M0 15.02 C0.31 12.15, -0.32 8.52, 0 5.01 M0 5.01 C1.04 1.91, 2.2 -0.01, 5.01 0 M0 5.01 C0.16 0.03, -0.44 -1.75, 5.01 0" stroke="#1e1e1e" stroke-width="2" fill="none"></path></g></svg>