<svg version="1.1" xmlns="http://www.w3.org/2000/svg" viewBox="0 0 491.73219270840264 352.24192694166425" width="1475.196578125208" height="1056.7257808249929">
  <!-- svg-source:excalidraw -->
  
  <defs>
    <style class="style-fonts">
      
    </style>
    
  </defs>
  <g stroke-linecap="round"><g transform="translate(353.5879651342336 179.01641635506428) rotate(0 -114.96679510750027 -1.4484651302477687)" fill-rule="evenodd"><path d="M-97.29 -44.35 C-104.06 -44.02, -114.84 -43.18, -135.28 -41.53 C-155.72 -39.88, -194.14 -29.35, -219.92 -34.43 C-245.7 -39.51, -271.39 -50.98, -289.95 -72.02 C-308.5 -93.06, -322.71 -146.47, -331.25 -160.66 C-339.8 -174.85, -339.36 -160.6, -341.22 -157.18 C-343.08 -153.76, -342.65 -147.89, -342.43 -140.16 C-342.22 -132.43, -344.83 -122.93, -339.94 -110.79 C-335.05 -98.65, -324.14 -79.81, -313.11 -67.32 C-302.08 -54.83, -286.17 -46.8, -273.76 -35.86 C-261.34 -24.92, -239.89 -28.33, -238.62 -1.68 C-237.34 24.97, -267.64 100.34, -266.11 124.04 C-264.58 147.75, -233.45 141.12, -229.44 140.56 C-225.43 140, -241.62 128.97, -242.05 120.7 C-242.49 112.42, -244.61 100.87, -232.08 90.93 C-219.54 80.99, -177.9 53.07, -166.86 61.06 C-155.82 69.06, -172.97 125.45, -165.85 138.92 C-158.72 152.38, -128.76 142.94, -124.1 141.85 C-119.45 140.77, -137.67 146.24, -137.92 132.43 C-138.17 118.63, -137.43 69.38, -125.58 59.03 C-113.74 48.67, -78.57 54.46, -66.83 70.29 C-55.08 86.13, -65.93 139.28, -55.12 154.01 C-44.3 168.75, -6.87 160.1, -1.94 158.72 C2.99 157.33, -22.6 160.74, -25.53 145.69 C-28.45 130.64, -32.52 78.05, -19.49 68.43 C-6.45 58.8, 35.59 76.08, 52.67 87.94 C69.74 99.8, 72.59 129.32, 82.94 139.62 C93.29 149.92, 112.65 152.5, 114.76 149.72 C116.86 146.94, 100.23 130.69, 95.57 122.95 C90.91 115.22, 91.08 115.27, 86.8 103.31 C82.53 91.36, 71.89 75.28, 69.92 51.22 C67.94 27.16, 94.48 -25.89, 74.95 -41.04 C55.42 -56.18, -18.83 -39.22, -47.26 -39.65 C-75.7 -40.09, -87.03 -43.06, -95.67 -43.64" stroke="none" stroke-width="0" fill="#ffa94d" fill-rule="evenodd"></path><path d="M-96.63 -46.5 C-103.04 -45.94, -115.79 -43.88, -136.23 -41.68 C-156.67 -39.47, -193.81 -27.91, -219.27 -33.26 C-244.74 -38.61, -270.23 -52.39, -289.01 -73.78 C-307.78 -95.17, -323.37 -147.71, -331.93 -161.58 C-340.48 -175.46, -338.44 -160.67, -340.33 -157.02 C-342.22 -153.38, -343.73 -147.49, -343.26 -139.72 C-342.8 -131.94, -342.83 -122.23, -337.54 -110.37 C-332.25 -98.51, -322.45 -80.82, -311.52 -68.58 C-300.6 -56.33, -283.68 -48.25, -271.99 -36.9 C-260.29 -25.55, -242.01 -27.52, -241.37 -0.49 C-240.72 26.54, -269.71 102.24, -268.12 125.28 C-266.52 148.32, -236.14 138.82, -231.8 137.78 C-227.47 136.74, -241.86 127.29, -242.12 119.03 C-242.38 110.78, -245.44 97.69, -233.37 88.24 C-221.29 78.79, -180.93 54.07, -169.65 62.35 C-158.38 70.64, -173.13 125.18, -165.69 137.95 C-158.25 150.73, -129.39 140.06, -125.04 139 C-120.69 137.94, -139.57 145.28, -139.6 131.6 C-139.63 117.92, -137.82 67.37, -125.2 56.91 C-112.57 46.44, -75.71 52.44, -63.85 68.81 C-52 85.18, -64.16 140.22, -54.06 155.12 C-43.97 170.02, -8.24 160.19, -3.28 158.23 C1.68 156.27, -21.28 158.51, -24.31 143.36 C-27.34 128.22, -34.05 76.5, -21.44 67.37 C-8.84 58.24, 34.22 76.51, 51.31 88.58 C68.39 100.65, 70.71 129.32, 81.08 139.8 C91.45 150.27, 110.73 153.71, 113.53 151.43 C116.34 149.15, 101.97 134.11, 97.89 126.13 C93.81 118.14, 94.04 116.02, 89.08 103.53 C84.12 91.04, 70.84 75.55, 68.11 51.17 C65.39 26.8, 91.68 -27.36, 72.73 -42.72 C53.79 -58.09, -17.24 -40.63, -45.55 -41 C-73.85 -41.37, -88.35 -44.09, -97.12 -44.94 M-97.87 -44.38 C-104.29 -44.19, -116.28 -45.29, -136.67 -43.28 C-157.06 -41.26, -194.88 -27.35, -220.21 -32.27 C-245.54 -37.19, -270.36 -51.28, -288.65 -72.82 C-306.94 -94.35, -321.01 -147.33, -329.95 -161.5 C-338.89 -175.67, -340.17 -161.3, -342.3 -157.86 C-344.44 -154.41, -343.42 -149.18, -342.76 -140.8 C-342.09 -132.42, -343.31 -119.38, -338.33 -107.58 C-333.35 -95.78, -323.49 -81.78, -312.85 -70.01 C-302.21 -58.24, -286.38 -48.14, -274.49 -36.95 C-262.6 -25.76, -242.93 -29.89, -241.53 -2.85 C-240.13 24.2, -267.75 101.49, -266.09 125.32 C-264.42 149.14, -235.41 141.28, -231.55 140.11 C-227.69 138.93, -242.69 127.05, -242.94 118.28 C-243.2 109.52, -245.39 96.73, -233.08 87.52 C-220.77 78.31, -180.2 54.44, -169.1 63.03 C-157.99 71.61, -173.59 126.36, -166.47 139.04 C-159.34 151.73, -131.12 140.26, -126.35 139.13 C-121.57 137.99, -138.09 145.71, -137.84 132.25 C-137.58 118.79, -137.04 69.17, -124.81 58.37 C-112.58 47.56, -76.35 51.48, -64.45 67.43 C-52.56 83.39, -63.6 139.09, -53.43 154.09 C-43.25 169.09, -8.49 158.85, -3.4 157.43 C1.69 156.01, -20.13 161.03, -22.89 145.55 C-25.66 130.07, -32.01 74.01, -20.01 64.56 C-8 55.1, 32.63 76.39, 49.13 88.82 C65.64 101.26, 68.64 128.95, 79.03 139.16 C89.43 149.36, 108.3 152.5, 111.52 150.07 C114.73 147.64, 102.35 132, 98.31 124.56 C94.27 117.12, 92.37 117.43, 87.3 105.43 C82.22 93.43, 70.38 77.56, 67.86 52.57 C65.34 27.58, 90.8 -28.9, 72.15 -44.5 C53.5 -60.09, -16.09 -40.57, -44.03 -41 C-71.96 -41.44, -86.58 -46.1, -95.45 -47.12" stroke="#1e1e1e" stroke-width="2" fill="none"></path></g></g><mask></mask><g stroke-linecap="round"><g transform="translate(480.32887738880686 102.40359066602184) rotate(0 -27.713406465230378 -44.48803096461177)" fill-rule="evenodd"><path d="M-1.28 -1.18 C-2.31 -16.36, 4.07 -81.59, -5.11 -89.7 C-14.28 -97.82, -57.06 -64.52, -56.31 -49.89 C-55.56 -35.27, -10.2 -10.42, -0.58 -1.93" stroke="none" stroke-width="0" fill="#ffa94d" fill-rule="evenodd"></path><path d="M0.87 -0.22 C0.13 -14.81, 4.47 -80.15, -4.74 -87.98 C-13.95 -95.8, -55.31 -61.72, -54.39 -47.16 C-53.48 -32.61, -8.2 -8.49, 0.76 -0.62 M-0.13 -1.38 C-1.04 -16.25, 3.17 -81.58, -5.91 -89.57 C-14.99 -97.56, -55.84 -64.27, -54.62 -49.32 C-53.4 -34.37, -7.9 -8.13, 1.4 0.15" stroke="#1e1e1e" stroke-width="2" fill="none"></path></g></g><mask></mask><g stroke-linecap="round"><g transform="translate(315.95504127970946 100.30525583326425) rotate(0 27.71340646523032 -44.48803096461171)" fill-rule="evenodd"><path d="M2.04 0.75 C2.79 -13.73, -2.63 -80.48, 5.96 -88.57 C14.55 -96.65, 54.47 -62.35, 53.57 -47.77 C52.68 -33.2, 9.43 -9.45, 0.59 -1.13" stroke="none" stroke-width="0" fill="#ffa94d" fill-rule="evenodd"></path><path d="M-1.14 0.52 C-0.28 -14.19, -4.09 -81.3, 5.32 -89.17 C14.72 -97.05, 56.32 -61.8, 55.29 -46.74 C54.27 -31.69, 8.55 -6.73, -0.86 1.17 M0.47 -0.26 C1.23 -14.7, -4.11 -79.67, 4.89 -87.74 C13.89 -95.81, 55.45 -63.17, 54.46 -48.68 C53.47 -34.19, 7.94 -9.12, -1.06 -0.78" stroke="#1e1e1e" stroke-width="2" fill="none"></path></g></g><mask></mask><g stroke-linecap="round" transform="translate(314.51538380099623 49.75067519165998) rotate(0 83.14021939569102 71.28195870466197)"><path d="M45.28 8.35 C54.26 3.29, 68.34 1.44, 79.74 0.74 C91.15 0.05, 103.28 0.72, 113.71 4.18 C124.13 7.64, 134.48 14.47, 142.28 21.52 C150.09 28.56, 156.41 37.32, 160.52 46.48 C164.64 55.64, 167.58 66.94, 166.99 76.47 C166.4 86, 162.24 95.39, 156.97 103.66 C151.7 111.93, 144.35 119.89, 135.36 126.12 C126.37 132.35, 114.11 138.44, 103.04 141.03 C91.96 143.62, 79.8 143.49, 68.91 141.67 C58.01 139.86, 46.91 135.47, 37.67 130.13 C28.43 124.78, 19.48 117.55, 13.47 109.62 C7.46 101.69, 3.44 92.12, 1.62 82.53 C-0.19 72.94, -0.19 61.53, 2.58 52.06 C5.35 42.6, 9.6 33.75, 18.24 25.72 C26.87 17.69, 47.08 7.6, 54.39 3.88 C61.7 0.16, 61.84 2.33, 62.11 3.41 M68.86 -0.04 C79.59 -3.09, 92.69 -1.2, 103.61 1.38 C114.53 3.97, 125.8 9.42, 134.39 15.48 C142.99 21.54, 149.96 29.3, 155.16 37.74 C160.35 46.18, 164.73 56.78, 165.56 66.12 C166.39 75.46, 163.72 84.81, 160.12 93.79 C156.52 102.77, 151.45 112.8, 143.96 120 C136.47 127.19, 125.88 133.01, 115.18 136.96 C104.48 140.91, 90.92 143.94, 79.75 143.7 C68.57 143.46, 58.13 139.92, 48.14 135.51 C38.15 131.1, 27.22 124.48, 19.79 117.23 C12.37 109.97, 6.97 101.23, 3.57 91.99 C0.17 82.75, -2.22 71.51, -0.62 61.79 C0.99 52.06, 7.03 41.64, 13.2 33.65 C19.37 25.67, 27.34 19.13, 36.41 13.88 C45.49 8.63, 62.44 4.19, 67.65 2.15 C72.87 0.12, 67.65 0.88, 67.7 1.68" stroke="none" stroke-width="0" fill="#ffd8a8"></path><path d="M52.69 3.76 C62.02 -0.48, 75.69 -0.45, 86.96 0.32 C98.23 1.1, 110.12 4.13, 120.31 8.41 C130.5 12.69, 140.75 18.48, 148.08 26 C155.41 33.53, 161.45 44.08, 164.3 53.55 C167.14 63.02, 167.18 73.42, 165.15 82.85 C163.13 92.28, 158.2 102.06, 152.15 110.13 C146.1 118.21, 138.35 126.15, 128.87 131.29 C119.38 136.44, 106.46 139.61, 95.23 141.01 C84.01 142.4, 72.38 142.17, 61.51 139.66 C50.64 137.16, 38.81 132.05, 30.01 126 C21.22 119.95, 13.88 111.76, 8.74 103.36 C3.59 94.97, -0.43 85.39, -0.85 75.62 C-1.26 65.85, 1.95 53.97, 6.24 44.76 C10.54 35.56, 16.17 27.28, 24.93 20.39 C33.69 13.5, 51.94 6.31, 58.78 3.42 C65.63 0.53, 65.45 2.12, 65.99 3.06 M72.55 -0.2 C83.26 -2.22, 97.31 0.56, 107.82 3.4 C118.34 6.24, 127.06 10.49, 135.64 16.84 C144.22 23.2, 154.22 32.64, 159.31 41.53 C164.4 50.42, 166.27 60.85, 166.18 70.19 C166.09 79.53, 163.05 88.87, 158.77 97.57 C154.49 106.26, 148.64 115.78, 140.49 122.37 C132.34 128.96, 120.7 133.86, 109.87 137.13 C99.05 140.4, 86.57 142.48, 75.54 141.99 C64.52 141.5, 53.36 138.65, 43.72 134.18 C34.09 129.72, 24.45 122.8, 17.74 115.2 C11.03 107.59, 6.41 98.21, 3.46 88.55 C0.5 78.89, -1.88 67, 0 57.25 C1.88 47.5, 8.11 37.99, 14.73 30.03 C21.35 22.07, 30.41 14.27, 39.72 9.48 C49.03 4.69, 64.96 2.56, 70.59 1.29 C76.21 0.01, 73.08 0.58, 73.47 1.81" stroke="#1e1e1e" stroke-width="2" fill="none"></path></g><g stroke-linecap="round" transform="translate(364.9033955559605 95.2497977691038) rotate(0 3.9590580664614663 13.14419096681712)"><path d="M3.75 0.3 C4.7 -0.22, 5.85 0.39, 6.51 1.89 C7.17 3.39, 7.62 6.6, 7.73 9.28 C7.84 11.97, 7.43 15.48, 7.17 17.98 C6.91 20.48, 6.87 22.88, 6.16 24.3 C5.46 25.71, 3.87 26.97, 2.94 26.47 C2 25.97, 1.09 23.62, 0.55 21.31 C0 19, -0.48 15.45, -0.35 12.61 C-0.22 9.78, 0.71 6.47, 1.33 4.31 C1.95 2.16, 2.95 0.36, 3.37 -0.29 C3.8 -0.95, 3.91 0.07, 3.87 0.37 M4.27 1.02 C5.24 1.49, 6.89 3.64, 7.59 5.74 C8.3 7.83, 8.6 10.84, 8.51 13.62 C8.43 16.41, 7.86 20.32, 7.07 22.45 C6.27 24.59, 4.76 26.09, 3.76 26.45 C2.76 26.82, 1.68 26.09, 1.09 24.63 C0.51 23.17, 0.31 20.44, 0.27 17.7 C0.23 14.96, 0.54 11, 0.84 8.19 C1.15 5.39, 1.44 2.27, 2.1 0.88 C2.76 -0.51, 4.32 0, 4.82 -0.15 C5.31 -0.3, 5.06 -0.2, 5.08 -0.01" stroke="none" stroke-width="0" fill="#1e1e1e"></path><path d="M2.97 0.59 C3.82 -0.3, 4.89 -0.13, 5.73 1.01 C6.58 2.16, 7.75 4.78, 8.02 7.48 C8.3 10.18, 7.68 14.52, 7.38 17.2 C7.09 19.89, 6.92 22.06, 6.26 23.58 C5.59 25.1, 4.3 26.55, 3.39 26.3 C2.48 26.05, 1.44 24.08, 0.8 22.08 C0.17 20.08, -0.4 17.11, -0.43 14.32 C-0.45 11.54, 0.07 7.79, 0.65 5.38 C1.22 2.96, 2.58 0.68, 3.03 -0.16 C3.48 -1, 3.25 0.02, 3.34 0.36 M3.3 -0.36 C4.26 -0.83, 5.99 0.94, 6.7 2.45 C7.4 3.95, 7.36 6.25, 7.54 8.68 C7.72 11.12, 7.99 14.31, 7.78 17.06 C7.57 19.82, 6.99 23.7, 6.26 25.22 C5.53 26.74, 4.26 26.9, 3.4 26.19 C2.55 25.48, 1.78 23.11, 1.11 20.95 C0.43 18.79, -0.54 15.96, -0.65 13.22 C-0.75 10.49, -0.16 6.68, 0.46 4.53 C1.09 2.39, 2.66 1.12, 3.1 0.35 C3.54 -0.42, 3.1 -0.25, 3.1 -0.09" stroke="#1e1e1e" stroke-width="2" fill="none"></path></g><g stroke-linecap="round" transform="translate(421.40995159545605 94.23870615627175) rotate(0 3.9590580664614663 13.14419096681712)"><path d="M4.92 0.13 C5.71 0.47, 6.9 2.79, 7.46 5.01 C8.02 7.23, 8.43 10.61, 8.29 13.47 C8.15 16.34, 7.32 20.14, 6.63 22.2 C5.94 24.25, 4.94 25.5, 4.14 25.78 C3.33 26.06, 2.4 25.43, 1.81 23.87 C1.22 22.31, 0.9 19.14, 0.6 16.41 C0.31 13.69, -0.19 10.05, 0.04 7.52 C0.27 4.99, 1.14 2.46, 1.98 1.23 C2.82 0, 4.52 0.18, 5.08 0.13 C5.63 0.08, 5.27 0.66, 5.31 0.93 M4.84 0.34 C5.79 0.5, 6.39 2.21, 6.91 4.14 C7.43 6.07, 7.85 9.14, 7.97 11.93 C8.09 14.72, 8.1 18.54, 7.64 20.87 C7.18 23.2, 5.98 25.23, 5.22 25.91 C4.46 26.58, 3.84 26.12, 3.08 24.9 C2.32 23.67, 1.1 20.94, 0.66 18.54 C0.22 16.14, 0.22 13.04, 0.44 10.51 C0.66 7.97, 1.4 5.13, 1.98 3.33 C2.57 1.52, 3.63 0.11, 3.93 -0.33 C4.22 -0.77, 3.63 0.44, 3.77 0.7" stroke="none" stroke-width="0" fill="#1e1e1e"></path><path d="M3.97 0.32 C4.66 0.21, 5.38 1.18, 6.1 2.9 C6.83 4.61, 8.1 7.87, 8.31 10.62 C8.53 13.37, 7.91 16.88, 7.38 19.42 C6.85 21.96, 5.95 24.86, 5.14 25.85 C4.32 26.84, 3.32 26.35, 2.49 25.37 C1.65 24.38, 0.53 22.44, 0.13 19.94 C-0.27 17.45, -0.12 13.15, 0.11 10.4 C0.35 7.65, 0.93 5.16, 1.54 3.47 C2.16 1.77, 3.41 0.66, 3.82 0.21 C4.23 -0.23, 3.88 0.55, 3.99 0.8 M5.18 -0.46 C6.04 -0.24, 6.81 1.88, 7.34 4.21 C7.86 6.55, 8.28 10.53, 8.31 13.56 C8.35 16.59, 8.14 20.3, 7.53 22.39 C6.91 24.48, 5.66 25.79, 4.62 26.12 C3.58 26.44, 2.1 25.78, 1.29 24.36 C0.47 22.94, 0.01 20.24, -0.25 17.61 C-0.52 14.98, -0.59 11.37, -0.3 8.57 C-0.02 5.78, 0.57 2.24, 1.44 0.85 C2.32 -0.54, 4.29 0.37, 4.94 0.23 C5.59 0.09, 5.51 -0.23, 5.37 0" stroke="#1e1e1e" stroke-width="2" fill="none"></path></g><g stroke-linecap="round"><g transform="translate(390.09740143344254 167.03730228018185) rotate(0 8.997859241957883 -7.077641289824555)"><path d="M-0.48 -0.75 C0.82 -3.38, 5.33 -16.97, 8.54 -16.42 C11.75 -15.87, 17.35 -0.43, 18.77 2.56 M1.48 1.47 C2.54 -0.92, 4.72 -14.84, 7.54 -15.01 C10.36 -15.17, 16.86 -2.39, 18.41 0.5" stroke="#1e1e1e" stroke-width="2" fill="none"></path></g></g><mask></mask></svg>